<?xml version="1.0" standalone="no"?>
<!DOCTYPE svg PUBLIC "-//W3C//DTD SVG 20010904//EN"
 "http://www.w3.org/TR/2001/REC-SVG-20010904/DTD/svg10.dtd">
<svg version="1.0" xmlns="http://www.w3.org/2000/svg"
 width="8.000000pt" height="8.000000pt" viewBox="0 0 52.000000 52.000000"
 preserveAspectRatio="xMidYMid meet">

<g transform="translate(0.000000,52.000000) scale(0.100000,-0.100000)"
fill="#000000" stroke="none">
<path d="M220 512 c0 -4 16 -23 35 -42 19 -19 35 -39 35 -45 0 -6 -27 -37 -60
-70 -72 -72 -75 -92 -21 -146 56 -56 78 -53 157 23 l64 62 38 -37 c21 -20 41
-37 45 -37 4 0 6 66 5 148 l-3 147 -147 3 c-82 1 -148 -1 -148 -6z"/>
<path d="M47 404 c-40 -22 -47 -50 -47 -194 0 -146 7 -173 49 -195 38 -19 276
-22 316 -3 39 18 55 57 55 139 l0 73 -30 -29 c-24 -23 -30 -37 -30 -70 0 -22
-5 -46 -12 -53 -17 -17 -259 -17 -276 0 -17 17 -17 259 0 276 7 7 31 12 53 12
33 0 47 6 70 30 l29 30 -75 0 c-46 -1 -84 -6 -102 -16z"/>
</g>
</svg>
